<?xml version="1.0" encoding="UTF-8"?>
<svg id="Layer_1" xmlns="http://www.w3.org/2000/svg" version="1.1" viewBox="0 0 110 118.88">
  <!-- Generator: Adobe Illustrator 30.0.0, SVG Export Plug-In . SVG Version: 2.1.1 Build 123)  -->
  <defs>
    <style>
      .st0 {
        fill-rule: evenodd;
      }

      .st1 {
        font-family: HelveticaNeue-Bold, 'Helvetica Neue';
        font-size: 5px;
        font-weight: 700;
        isolation: isolate;
      }
    </style>
  </defs>
  <path class="st0" d="M69.79,48.43c-.59,0-1.17-.18-1.7-.47-.7-.47-1.17-1.17-1.35-1.99-.18-.82.06-1.64.53-2.34l3.98-5.45c.64-.82,1.64-1.35,2.7-1.35.59,0,1.23.18,1.7.53.76.41,1.23,1.11,1.35,1.93.18.82,0,1.64-.53,2.34l-3.98,5.45c-.59.88-1.58,1.35-2.7,1.35h0ZM73.95,39.17c-.29,0-.59.18-.76.41l-4.04,5.45c-.12.18-.12.35-.12.53.06.12.12.29.29.41.41.23,1,.12,1.29-.23l3.98-5.51c.12-.12.18-.29.12-.47,0-.12-.06-.29-.29-.41-.12-.12-.29-.18-.47-.18h0Z"/>
  <path class="st0" d="M63.52,57.1c-.64,0-1.23-.18-1.76-.53-.7-.41-1.17-1.11-1.35-1.93-.12-.82.06-1.64.53-2.34l4.04-5.51c.59-.82,1.58-1.29,2.64-1.29.64,0,1.23.18,1.7.47.76.47,1.23,1.17,1.41,1.99.12.82-.06,1.64-.53,2.29l-4.04,5.51c-.59.82-1.58,1.35-2.64,1.35h0ZM67.62,47.84c-.29,0-.59.12-.76.35l-3.98,5.45c-.12.18-.18.35-.12.53,0,.12.06.29.29.41.35.23,1,.12,1.23-.23l3.98-5.45c.12-.18.18-.35.12-.53,0-.12-.06-.29-.29-.41-.12-.12-.29-.12-.47-.12h0Z"/>
  <path class="st0" d="M57.19,65.71c-.64,0-1.23-.18-1.7-.47-.76-.47-1.23-1.17-1.41-1.99-.12-.82.06-1.64.59-2.34l3.98-5.45c.59-.82,1.58-1.35,2.64-1.35.64,0,1.23.18,1.76.47.7.47,1.17,1.17,1.35,1.99.18.82-.06,1.64-.53,2.34l-4.04,5.45c-.59.82-1.58,1.35-2.64,1.35h0ZM61.3,56.45c-.29,0-.59.18-.76.35l-3.98,5.51c-.12.18-.18.35-.12.53,0,.12.06.29.29.41.35.23,1,.12,1.23-.23l3.98-5.51c.12-.12.18-.35.18-.47-.06-.18-.12-.29-.35-.47-.12-.06-.29-.12-.47-.12h0Z"/>
  <path class="st0" d="M39.27,75.32c-.64,0-1.17-.47-1.17-1.11-.06-.64.47-1.17,1.11-1.23,9.61-.41,14.23-5.92,16.17-9.2.35-.53,1.05-.76,1.58-.41.59.35.76,1.05.41,1.58-2.11,3.69-7.38,9.9-18.04,10.37h-.06,0Z"/>
  <path class="st0" d="M56.49,85.16c-.53,0-.94-.29-1.11-.76-.06-.12-.18-.35-.35-.64-1.29-2.23-4.75-8.14-4.22-14.29.06-.64.59-1.11,1.23-1.05.64.06,1.17.59,1.11,1.23-.47,5.39,2.7,10.9,3.93,12.95.35.64.47.88.53,1.11.18.64-.23,1.29-.82,1.46h-.29Z"/>
  <path class="st0" d="M35.46,89.44c-.47,0-.94-.29-1.11-.82-.23-.59.06-1.23.7-1.46,3.46-1.29,10.19-5.39,15.82-18.04.29-.59,1-.88,1.58-.59.59.23.82.94.59,1.52-5.98,13.47-13.35,17.87-17.16,19.27-.18.06-.29.12-.41.12h0Z"/>
  <path class="st0" d="M80.57,41.81c-2.4,0-4.69-.94-6.39-2.64-1.64-1.7-2.58-3.98-2.58-6.33s.94-4.69,2.58-6.39c1.7-1.7,3.98-2.64,6.39-2.64s4.63.94,6.33,2.64,2.64,3.98,2.64,6.39-.94,4.63-2.64,6.33-3.93,2.64-6.33,2.64ZM80.57,26.17c-1.76,0-3.46.7-4.69,1.99-1.29,1.23-1.93,2.87-1.93,4.63s.64,3.46,1.93,4.69c1.23,1.29,2.93,1.99,4.69,1.99s3.4-.7,4.69-1.99c1.23-1.23,1.93-2.87,1.93-4.69s-.7-3.4-1.93-4.63c-1.29-1.29-2.93-1.99-4.69-1.99Z"/>
  <path class="st0" d="M98.09,42.34h-.23c-5.21-1-9.02-2.93-11.31-4.39-.59-.29-.76-1.05-.41-1.58.35-.53,1.11-.7,1.64-.35,2.11,1.29,5.68,3.05,10.48,3.98.64.12,1.05.76.94,1.41-.12.53-.59.94-1.11.94h0Z"/>
  <path class="st0" d="M95.92,48.14c-.47,0-.88-.23-1.05-.64l-3.75-7.5c-.29-.59-.06-1.29.53-1.58.59-.29,1.29-.06,1.58.53l3.75,7.5c.29.59,0,1.29-.53,1.58-.18.06-.35.12-.53.12h0Z"/>
  <path class="st0" d="M87.78,31.09c-.35,0-.64-.12-.88-.41-.41-.53-.35-1.29.18-1.64,4.1-3.16,5.04-3.93,5.21-4.1.47-.64,2.99-5.16,4.69-8.2.29-.53,1-.76,1.58-.47.59.35.76,1.05.47,1.64-4.51,8.14-4.92,8.55-5.04,8.67-.12.12-.41.35-5.45,4.28-.23.18-.47.23-.76.23h0Z"/>
  <path class="st0" d="M100.02,31.03c-.18,0-.41-.06-.59-.18l-6.91-4.1c-.53-.35-.7-1.05-.35-1.64.29-.53,1-.7,1.58-.35l6.91,4.1c.53.35.7,1.05.35,1.64-.18.35-.59.53-1,.53h0Z"/>
  <path class="st0" d="M84.26,27.16c-.18,0-.35-.06-.53-.18-.59-.29-.76-1-.47-1.58l3.87-7.15c.29-.59,1-.76,1.58-.47.59.29.76,1,.47,1.58l-3.87,7.15c-.23.41-.59.64-1.05.64h0Z"/>
  <path class="st0" d="M77.29,26.93c-.47,0-.94-.29-1.11-.76l-2.17-5.74-9.32.47c-.7,0-1.23-.47-1.23-1.11-.06-.64.47-1.23,1.11-1.23l10.13-.53c.53,0,1,.29,1.17.76l2.46,6.56c.23.59-.06,1.29-.64,1.46-.18.06-.29.12-.41.12h0Z"/>
  <path class="st0" d="M74.77,20.37h-.12c-.64-.06-1.11-.64-1.05-1.29l.82-8.03c.06-.64.64-1.11,1.29-1.05.64.06,1.11.64,1.05,1.29l-.82,8.03c-.06.64-.59,1.05-1.17,1.05h0Z"/>
  <path class="st0" d="M72.78,33.55c-.12,0-.23-.06-.35-.06l-7.44-2.11c-.59-.18-1-.82-.82-1.46.18-.59.82-1,1.46-.82l7.44,2.11c.64.18,1,.82.82,1.46-.12.53-.59.88-1.11.88h0Z"/>
  <path class="st0" d="M80.81,49.07h-.23c-.59-.12-1.05-.76-.88-1.41l1.41-7.44c.12-.64.76-1.05,1.35-.94.64.12,1.05.7.94,1.35l-1.41,7.5c-.12.53-.59.94-1.17.94h0Z"/>
  <path class="st0" d="M25.91,86.21c-.41,0-.82-.18-1.05-.59l-2.46-4.28c-.18-.35-.18-.76,0-1.11l2.93-6.09c.29-.59,1-.82,1.58-.53.59.23.82.94.53,1.52l-2.7,5.57,2.17,3.75c.35.59.12,1.29-.41,1.64-.23.06-.41.12-.59.12h0Z"/>
  <path class="st0" d="M23.45,81.94c-.12,0-.23,0-.35-.06l-4.57-1.41c-.64-.18-.94-.88-.76-1.46.18-.64.82-1,1.46-.76l4.51,1.41c.64.18,1,.82.82,1.46-.18.47-.64.82-1.11.82h0Z"/>
  <path class="st0" d="M21.4,93.42c-.18,0-.29,0-.47-.06l-6.5-2.52c-.12-.06-.29-.12-.41-.23l-3.93-3.81c-.47-.41-.47-1.17-.06-1.64.47-.47,1.23-.47,1.7-.06l3.75,3.63,6.33,2.4c.59.23.88.94.64,1.52-.18.47-.59.76-1.05.76h0Z"/>
  <path class="st0" d="M9.92,93.77c-.41,0-.76-.23-1-.59-.29-.59-.12-1.29.41-1.58l4.92-2.87c.59-.29,1.29-.12,1.64.47.29.53.12,1.29-.47,1.58l-4.92,2.81c-.18.12-.35.18-.59.18h0Z"/>
  <path class="st0" d="M19.65,104.38c-.29,0-.53-.12-.76-.29-.47-.35-.59-1.11-.18-1.64l4.34-5.51c.35-.53,1.11-.64,1.64-.23.47.41.59,1.17.18,1.64l-4.34,5.57c-.18.29-.53.47-.88.47h0Z"/>
  <path class="st0" d="M28.43,110c-.06,0-.18-.06-.23-.06-.64-.12-1.05-.76-.88-1.41l1.93-9.43c.12-.64.76-1.05,1.41-.88.64.12,1.05.76.88,1.35l-1.93,9.49c-.12.53-.64.94-1.17.94h0Z"/>
  <path class="st0" d="M43.55,103.67c-.35,0-.64-.12-.88-.41-.41-.35-2.7-2.11-8.2-6.15-.53-.35-.64-1.11-.29-1.58.41-.53,1.11-.64,1.64-.29,8.32,6.09,8.55,6.39,8.73,6.62.35.53.18,1.29-.35,1.64-.18.12-.41.18-.64.18h0Z"/>
  <path class="st0" d="M39.68,106.95c-.59,0-1.11-.47-1.17-1.05l-.59-6.74c-.06-.64.41-1.23,1.05-1.23.64-.06,1.17.41,1.23,1.05l.64,6.68c.06.64-.41,1.23-1.05,1.29,0,0-.12,0-.12,0Z"/>
  <path class="st0" d="M31.36,86.04c-.59,0-1.11-.47-1.17-1.11l-.35-5.57c0-.35.12-.7.35-.94l3.52-3.46c.47-.47,1.17-.47,1.64,0,.47.41.47,1.17,0,1.64l-3.11,3.11.29,5.1c.06.64-.47,1.17-1.11,1.23h-.06,0Z"/>
  <path class="st0" d="M28.9,100.68c-2.34,0-4.51-.94-6.15-2.58s-2.58-3.81-2.58-6.15.94-4.51,2.58-6.15,3.81-2.52,6.15-2.52,4.51.88,6.15,2.52c1.64,1.64,2.58,3.87,2.58,6.15s-.94,4.51-2.58,6.15c-1.64,1.64-3.81,2.58-6.15,2.58ZM28.9,85.63c-1.7,0-3.28.64-4.51,1.82-1.17,1.23-1.88,2.81-1.88,4.51s.7,3.34,1.88,4.51c1.23,1.23,2.81,1.88,4.51,1.88s3.28-.64,4.51-1.88c1.17-1.23,1.88-2.81,1.88-4.51s-.7-3.28-1.88-4.51c-1.23-1.17-2.81-1.82-4.51-1.82Z"/>
  <path class="st0" d="M34.65,109.53c-.23,0-.47-.12-.7-.29l-5.27-4.28c-.47-.41-.59-1.11-.18-1.64.41-.47,1.17-.59,1.7-.18l5.21,4.28c.53.41.59,1.17.18,1.64-.23.29-.59.47-.94.47h0Z"/>
  <text class="st1" transform="translate(5 127.5)"><tspan x="0" y="0">Created by Muhammad Owais</tspan></text>
  <text class="st1" transform="translate(5 132.5)"><tspan x="0" y="0">from Noun Project</tspan></text>
</svg>