<?xml version="1.0" encoding="UTF-8"?>
<svg id="Layer_1" xmlns="http://www.w3.org/2000/svg" version="1.1" viewBox="0 0 94.02 94.03">
  <!-- Generator: Adobe Illustrator 29.8.1, SVG Export Plug-In . SVG Version: 2.1.1 Build 2)  -->
  <path d="M93.47,44.26c-1.36-4.31-4.98-7.28-9.14-8.03,2.87-2.85,4.12-7.03,3.15-11.07-.73-3.05-2.61-5.64-5.28-7.28-2.67-1.64-5.83-2.15-8.88-1.41-.34.08-.66.2-.99.31.4-2.27.29-4.48.29-4.56,0-6.48-5.27-11.75-11.75-11.75s-11.75,5.27-11.75,11.75v15.4c0,.55.45,1,1,1s1-.45,1-1v-15.4c0-5.38,4.38-9.75,9.75-9.75s9.75,4.38,9.75,9.81c0,.03.16,3.19-.59,5.54-.03.08-.02.16-.03.24-.03.06-.06.12-.08.19-1.07-.12-2.19.06-3.21.6-.74.39-1.36.93-1.86,1.6-.33.44-.24,1.07.21,1.4.45.33,1.07.23,1.4-.21.32-.43.71-.77,1.19-1.02,1.72-.91,3.86-.25,4.77,1.47.44.83.53,1.79.26,2.69-.28.9-.89,1.64-1.72,2.08-.31.16-.64.28-.98.35-.54.11-.9.63-.79,1.17.09.48.51.81.98.81.06,0,.13,0,.19-.02.53-.1,1.04-.29,1.53-.54,1.31-.69,2.26-1.85,2.7-3.26.43-1.41.29-2.91-.4-4.22-.49-.93-1.21-1.65-2.05-2.15.53-.23,1.08-.44,1.65-.57,2.54-.61,5.15-.19,7.37,1.17,2.22,1.36,3.78,3.51,4.38,6.04.96,4.02-.72,8.22-4.19,10.46-.87.07-1.75.22-2.62.5-.7.22-1.38.51-2.03.85-.49.26-.67.87-.41,1.35.26.49.87.67,1.35.41.54-.29,1.1-.52,1.68-.71,5.12-1.61,10.62,1.24,12.23,6.37.78,2.49.55,5.13-.65,7.44-1.2,2.31-3.24,4.01-5.72,4.8-3.34,1.05-6.91.23-9.47-2.1.65-.78,1.05-1.76,1.05-2.85,0-2.48-2.02-4.49-4.49-4.49s-4.49,2.02-4.49,4.49,2.02,4.49,4.49,4.49c.65,0,1.27-.15,1.83-.4,1.71,1.65,3.81,2.71,6.05,3.12,2.87,1.79,4.72,5.1,4.72,8.45,0,5.38-4.38,9.75-9.75,9.75-1.62,0-3.23-.41-4.65-1.17-.48-.26-1.09-.08-1.36.4-.26.49-.08,1.09.4,1.36.15.08.32.14.47.22.56,1.19.62,2.91.63,2.91,0,5.38-4.38,9.75-9.75,9.75s-9.75-4.38-9.75-9.75v-6.9c2.05-.42,3.6-2.23,3.6-4.4,0-2.48-2.02-4.49-4.49-4.49s-4.49,2.02-4.49,4.49c0,2.1,1.45,3.85,3.4,4.34,0,0,0,.02,0,.03v6.93c0,6.48,5.27,11.75,11.75,11.75s11.75-5.27,11.75-11.78c0-.06-.04-.97-.26-2.03.9.22,1.83.34,2.76.34,6.48,0,11.75-5.27,11.75-11.75,0-3.07-1.29-6.1-3.42-8.33.78-.08,1.57-.23,2.34-.48,6.18-1.95,9.63-8.56,7.68-14.74h0ZM47.72,69.97c0-1.38,1.12-2.49,2.49-2.49s2.49,1.12,2.49,2.49-1.12,2.49-2.49,2.49-2.49-1.12-2.49-2.49ZM69.78,52.14c0-1.38,1.12-2.49,2.49-2.49s2.49,1.12,2.49,2.49-1.12,2.49-2.49,2.49-2.49-1.12-2.49-2.49Z"/>
  <path d="M43.91,73.34c-.55,0-1,.45-1,1v6.48c0,5.38-4.38,9.75-9.75,9.75s-9.75-4.38-9.75-9.72c0-.02.06-1.76.63-2.95.16-.08.32-.14.47-.22.49-.26.67-.87.4-1.36-.26-.49-.87-.67-1.36-.4-1.42.77-3.02,1.17-4.65,1.17-5.38,0-9.75-4.38-9.75-9.75,0-3.35,1.85-6.66,4.72-8.45,2.36-.43,4.58-1.57,6.33-3.37.39-.4.38-1.03-.02-1.41-.4-.39-1.03-.38-1.41.02-2.59,2.66-6.39,3.62-9.93,2.51-2.48-.78-4.52-2.49-5.72-4.8s-1.44-4.95-.65-7.44c1.62-5.13,7.1-7.99,12.23-6.37.48.15.94.35,1.38.57-.08.34-.13.68-.13,1.04,0,2.48,2.02,4.49,4.49,4.49s4.49-2.02,4.49-4.49-2.02-4.49-4.49-4.49c-1.4,0-2.64.66-3.46,1.67-.54-.27-1.1-.5-1.68-.69-.86-.27-1.74-.43-2.62-.5-3.47-2.24-5.15-6.44-4.19-10.46,1.25-5.23,6.52-8.47,11.76-7.22.85.2,1.66.51,2.42.93.01,0,.03,0,.04.01-.74,2.71.68,5.6,3.35,6.62.64.25,1.3.37,1.98.37.15,0,.3,0,.45-.02.55-.04.96-.53.92-1.08-.04-.55-.53-.97-1.08-.92-.53.04-1.05-.03-1.55-.23-1.82-.7-2.73-2.75-2.03-4.57.34-.88,1-1.58,1.86-1.96.86-.38,1.82-.41,2.7-.07.33.13.63.3.9.51.43.34,1.06.26,1.4-.18.34-.44.26-1.06-.18-1.4-.43-.33-.9-.6-1.41-.8-1.38-.53-2.88-.49-4.23.11-.77.34-1.42.86-1.95,1.48-.57-2.25-.43-4.94-.43-5.02,0-5.38,4.38-9.75,9.75-9.75s9.75,4.38,9.75,9.75v4.85c-2.06.41-3.62,2.23-3.62,4.41,0,2.48,2.02,4.49,4.49,4.49s4.49-2.02,4.49-4.49c0-2.08-1.43-3.83-3.36-4.33v-4.93C44.91,5.27,39.63,0,33.15,0s-11.75,5.27-11.75,11.7c0,.12-.12,2.34.29,4.61-.33-.11-.65-.23-.99-.31-6.3-1.5-12.66,2.39-14.17,8.7-.97,4.04.29,8.22,3.14,11.06-1.15.21-2.28.59-3.35,1.15-2.78,1.45-4.84,3.9-5.78,6.89-.94,2.99-.66,6.18.79,8.96,1.45,2.79,3.9,4.84,6.89,5.78.77.24,1.56.4,2.34.48-2.13,2.22-3.42,5.26-3.42,8.33,0,6.48,5.27,11.75,11.75,11.75.93,0,1.86-.12,2.76-.34-.23,1.06-.26,1.98-.26,2.05,0,6.48,5.27,11.75,11.75,11.75s11.75-5.27,11.75-11.75v-6.48c0-.55-.45-1-1-1h0ZM20.43,37.14c1.37,0,2.49,1.12,2.49,2.49s-1.12,2.49-2.49,2.49-2.49-1.12-2.49-2.49,1.12-2.49,2.49-2.49ZM46.27,21.01c0,1.37-1.12,2.49-2.49,2.49s-2.49-1.12-2.49-2.49,1.12-2.49,2.49-2.49,2.49,1.12,2.49,2.49Z"/>
  <path d="M68.57,67.02c1.36-.87,3.12-.85,4.48.03.46.3,1.08.17,1.38-.29.3-.46.17-1.08-.29-1.38-2.01-1.32-4.62-1.34-6.65-.05-1.27.81-2.15,2.03-2.56,3.4-.23-.2-.48-.39-.75-.56-.74-.47-1.56-.76-2.42-.88-.55-.07-1.05.31-1.13.86-.07.55.31,1.05.86,1.13.58.08,1.13.28,1.63.59,1.93,1.21,2.51,3.76,1.31,5.68-.58.93-1.5,1.58-2.57,1.83s-2.18.06-3.11-.52c-.47-.29-1.08-.15-1.38.32-.29.47-.15,1.09.32,1.38.99.62,2.1.94,3.24.94.46,0,.92-.05,1.38-.16,1.59-.37,2.95-1.33,3.82-2.72.99-1.58,1.16-3.44.64-5.09,0-.02,0-.04,0-.06-.41-1.71.31-3.5,1.8-4.45h0Z"/>
  <path d="M37.26,72.58c.26.23.48.5.66.8.29.47.9.62,1.37.33.47-.29.62-.9.33-1.37-.28-.46-.63-.88-1.04-1.25-1.74-1.56-4.2-1.8-6.18-.81-.68-3.18-3.51-5.57-6.88-5.57-3.88,0-7.04,3.16-7.04,7.04,0,.55.45,1,1,1s1-.45,1-1c0-2.78,2.26-5.04,5.04-5.04s5.04,2.26,5.04,5.04c0,.01,0,.03,0,.04-.84,1.06-1.28,2.36-1.2,3.72.08,1.48.73,2.83,1.83,3.82.62.56,1.34.96,2.14,1.19.09.03.19.04.28.04.43,0,.83-.28.96-.72.15-.53-.15-1.08-.68-1.24-.51-.15-.97-.4-1.37-.76-.7-.63-1.12-1.49-1.17-2.44-.05-.94.27-1.85.9-2.55,1.3-1.45,3.54-1.57,4.99-.27h0Z"/>
  <path d="M37.29,30.26c-2.61,0-4.73,1.99-5.01,4.52h-3.54c-.55,0-1,.45-1,1s.45,1,1,1h3.49v10.71h-15c-.46-2-2.24-3.49-4.37-3.49-2.48,0-4.49,2.02-4.49,4.49s2.02,4.49,4.49,4.49c2.13,0,3.91-1.5,4.37-3.49h15v3.88h-5.16c-.55,0-1,.45-1,1s.45,1,1,1h5.16v.04c0,2.79,2.27,5.06,5.06,5.06h2.64s-.03.08-.03.13v5.95c0,.55.45,1,1,1s1-.45,1-1v-5.95s-.02-.09-.03-.13h15.51c2.79,0,5.06-2.27,5.06-5.06v-10.46h14.73c.46,2,2.24,3.49,4.37,3.49,2.48,0,4.49-2.02,4.49-4.49s-2.02-4.49-4.49-4.49c-2.13,0-3.91,1.5-4.37,3.49h-14.73v-4.67h5.44c.55,0,1-.45,1-1s-.45-1-1-1h-5.44v-.96c0-2.7-2.13-4.89-4.79-5.03v-11.34c1.99-.46,3.48-2.24,3.48-4.37,0-2.48-2.02-4.49-4.49-4.49s-4.49,2.02-4.49,4.49c0,2.14,1.5,3.92,3.5,4.37v11.3h-18.36ZM12.86,50.98c-1.37,0-2.49-1.12-2.49-2.49s1.12-2.49,2.49-2.49,2.49,1.12,2.49,2.49-1.12,2.49-2.49,2.49ZM81.55,41.46c1.38,0,2.49,1.12,2.49,2.49s-1.12,2.49-2.49,2.49-2.49-1.12-2.49-2.49,1.12-2.49,2.49-2.49ZM60.45,35.32v20.1c0,1.69-1.37,3.06-3.06,3.06h-20.1c-1.69,0-3.06-1.37-3.06-3.06v-20.1c0-1.69,1.37-3.06,3.06-3.06h20.1c1.69,0,3.06,1.37,3.06,3.06ZM54.15,14.58c0-1.37,1.12-2.49,2.49-2.49s2.49,1.12,2.49,2.49-1.12,2.49-2.49,2.49-2.49-1.12-2.49-2.49Z"/>
  <path d="M51.93,35.07h-14.13c-.55,0-1,.45-1,1v18.59c0,.55.45,1,1,1h19.09c.55,0,1-.45,1-1v-14.28c0-.29-.12-.56-.34-.75l-4.96-4.31c-.18-.16-.42-.25-.66-.25ZM55.89,53.66h-17.09v-16.59h12.76l4.33,3.76v12.83h0Z"/>
</svg>